<svg width="110" height="50" viewBox="0 0 110 50" fill="none" xmlns="http://www.w3.org/2000/svg">
<path d="M7.6975 40.08C6.87083 40.08 6.2175 39.8933 5.7375 39.52C5.2575 39.12 4.87083 38.4667 4.5775 37.56C4.1775 36.2267 3.87083 34.5467 3.6575 32.52C3.47083 30.4667 3.3775 27.9467 3.3775 24.96C3.3775 23.12 3.44417 21.28 3.5775 19.44C3.7375 17.5733 3.9375 15.88 4.1775 14.36C4.4175 12.8133 4.67083 11.6133 4.9375 10.76C5.23083 9.85333 5.5775 9.22666 5.9775 8.88C6.3775 8.53333 6.83083 8.36 7.3375 8.36C7.87083 8.36 8.2975 8.54667 8.6175 8.92C8.9375 9.26666 9.19083 9.89333 9.3775 10.8C9.5375 11.68 9.6575 12.76 9.7375 14.04C9.84417 15.32 9.8975 16.6933 9.8975 18.16C9.8975 20.16 9.80417 22.2667 9.6175 24.48C9.43083 26.6933 9.1775 28.8667 8.8575 31C8.56417 33.1333 8.20417 35.0933 7.7775 36.88L6.6575 36.32C7.35083 35.4667 8.1375 34.8 9.0175 34.32C9.92417 33.84 10.7508 33.6 11.4975 33.6C12.1108 33.6 12.5775 33.7733 12.8975 34.12C13.2442 34.44 13.4175 34.9467 13.4175 35.64C13.4175 36.3333 13.1108 37.0267 12.4975 37.72C11.9108 38.4133 11.1775 38.9867 10.2975 39.44C9.4175 39.8667 8.55083 40.08 7.6975 40.08ZM18.5694 9.32C19.636 9.32 20.396 9.61333 20.8494 10.2C21.3294 10.7867 21.5694 11.4667 21.5694 12.24C21.5694 13.2 21.276 13.9467 20.6894 14.48C20.1294 14.9867 19.3294 15.24 18.2894 15.24C17.276 15.24 16.516 14.96 16.0094 14.4C15.5027 13.8133 15.2494 13.1333 15.2494 12.36C15.2494 11.3467 15.556 10.5867 16.1694 10.08C16.7827 9.57333 17.5827 9.32 18.5694 9.32ZM18.8094 18.24C19.6627 18.24 20.3294 19.04 20.8094 20.64C21.316 22.24 21.5694 24.7867 21.5694 28.28C21.5694 32.5733 21.2627 35.6667 20.6494 37.56C20.036 39.4533 19.1027 40.4 17.8494 40.4C16.8894 40.4 16.1827 39.7067 15.7294 38.32C15.276 36.9067 15.0494 34.4533 15.0494 30.96C15.0494 26.6667 15.396 23.48 16.0894 21.4C16.8094 19.2933 17.716 18.24 18.8094 18.24ZM34.5756 14.96C36.949 14.96 38.6556 15.3067 39.6956 16C40.7356 16.6933 41.2556 17.5867 41.2556 18.68C41.2556 19.32 41.029 19.8533 40.5756 20.28C40.149 20.68 39.5356 20.88 38.7356 20.88C37.909 20.88 37.0423 20.76 36.1356 20.52C35.2556 20.28 34.229 20.16 33.0556 20.16C31.6956 20.16 30.6823 20.4267 30.0156 20.96C29.349 21.4933 29.0156 22.1733 29.0156 23C29.0156 23.7733 29.309 24.3867 29.8956 24.84C30.509 25.2667 31.669 25.5867 33.3756 25.8C35.269 26.0133 36.829 26.36 38.0556 26.84C39.309 27.2933 40.2423 27.9867 40.8556 28.92C41.469 29.8267 41.7756 31.08 41.7756 32.68C41.7756 35.2133 40.8823 37.0933 39.0956 38.32C37.309 39.5467 34.8423 40.16 31.6956 40.16C29.6956 40.16 28.109 40 26.9356 39.68C25.7623 39.36 24.909 38.9067 24.3756 38.32C23.869 37.7333 23.6156 37.04 23.6156 36.24C23.6156 35.5467 23.8423 35.0133 24.2956 34.64C24.7756 34.24 25.3356 34.04 25.9756 34.04C26.589 34.04 27.2423 34.12 27.9356 34.28C28.629 34.4133 29.3623 34.56 30.1356 34.72C30.909 34.88 31.709 34.96 32.5356 34.96C35.2023 34.96 36.5356 34.1333 36.5356 32.48C36.5356 31.92 36.4023 31.4667 36.1356 31.12C35.869 30.7733 35.389 30.4933 34.6956 30.28C34.0023 30.04 32.989 29.8533 31.6556 29.72C30.0556 29.56 28.669 29.2933 27.4956 28.92C26.3223 28.52 25.4156 27.88 24.7756 27C24.1356 26.0933 23.8156 24.8533 23.8156 23.28C23.8156 20.8 24.749 18.8 26.6156 17.28C28.4823 15.7333 31.1356 14.96 34.5756 14.96ZM50.5828 15.92H49.7828C49.7028 14.7467 49.7295 13.64 49.8628 12.6C49.9961 11.5333 50.2761 10.68 50.7028 10.04C51.1561 9.37333 51.7961 9.04 52.6228 9.04C53.3695 9.04 53.9161 9.28 54.2628 9.76C54.6095 10.24 54.7828 10.9067 54.7828 11.76C54.7828 13.44 54.4628 14.88 53.8228 16.08L53.1028 16C54.5428 15.4933 56.1695 15.24 57.9828 15.24C59.1295 15.24 60.0361 15.4667 60.7028 15.92C61.3961 16.3467 61.7428 17.08 61.7428 18.12C61.7428 19.1067 61.3428 19.8533 60.5428 20.36C59.7428 20.8667 58.7428 21.12 57.5428 21.12C56.8228 21.12 56.0495 21.0933 55.2228 21.04C54.4228 20.96 53.6361 20.84 52.8628 20.68L53.5428 19.84C53.7828 20.8533 54.0095 22.0133 54.2228 23.32C54.4628 24.6 54.6761 25.9333 54.8628 27.32C55.0495 28.7067 55.1961 30.0533 55.3028 31.36C55.4095 32.6667 55.4628 33.84 55.4628 34.88C55.4628 36.5867 55.1961 37.9333 54.6628 38.92C54.1295 39.9067 53.3428 40.4 52.3028 40.4C51.4761 40.4 50.8228 40.1467 50.3428 39.64C49.8895 39.1333 49.5561 38.4933 49.3428 37.72C49.1561 36.92 49.0361 36.0933 48.9828 35.24C48.9561 34.3867 48.9428 33.6133 48.9428 32.92C48.9428 31.7467 48.9961 30.4267 49.1028 28.96C49.2095 27.4667 49.3561 25.9333 49.5428 24.36C49.7561 22.7867 49.9961 21.2667 50.2628 19.8L51.0628 20.48C49.7028 21.1733 48.0228 21.52 46.0228 21.52C44.7961 21.52 43.8495 21.2933 43.1828 20.84C42.5161 20.3867 42.1828 19.68 42.1828 18.72C42.1828 17.68 42.5561 16.88 43.3028 16.32C44.0495 15.7333 45.0495 15.44 46.3028 15.44C47.1295 15.44 47.9028 15.4933 48.6228 15.6C49.3695 15.68 50.0228 15.7867 50.5828 15.92ZM80.4747 40.4C79.568 40.4 78.9414 40.0533 78.5947 39.36C78.2747 38.64 78.088 37.5067 78.0347 35.96L78.4347 36.16C76.9414 39.0667 74.1147 40.52 69.9547 40.52C68.0614 40.52 66.488 40.1867 65.2347 39.52C63.9814 38.8267 63.048 37.92 62.4347 36.8C61.848 35.6533 61.5547 34.4133 61.5547 33.08C61.5547 30.7867 62.3547 28.9733 63.9547 27.64C65.5547 26.28 67.6747 25.6 70.3147 25.6C72.048 25.6 73.5547 25.8533 74.8347 26.36C76.1147 26.8667 77.208 27.5733 78.1147 28.48L77.4347 28.4C77.248 25.7067 76.6614 23.7867 75.6747 22.64C74.7147 21.4667 73.3414 20.88 71.5547 20.88C70.5147 20.88 69.5547 21.04 68.6747 21.36C67.7947 21.68 66.9814 22.0133 66.2347 22.36C65.5147 22.68 64.8347 22.84 64.1947 22.84C63.5547 22.84 63.048 22.6267 62.6747 22.2C62.328 21.7733 62.1547 21.2267 62.1547 20.56C62.1547 19.6 62.608 18.6933 63.5147 17.84C64.448 16.9867 65.6747 16.2933 67.1947 15.76C68.7147 15.2267 70.368 14.96 72.1547 14.96C74.3147 14.96 76.168 15.48 77.7147 16.52C79.2614 17.56 80.4347 19.08 81.2347 21.08C81.928 22.7867 82.4214 24.6933 82.7147 26.8C83.008 28.9067 83.1547 31.16 83.1547 33.56C83.1547 35.3733 83.0614 36.7733 82.8747 37.76C82.688 38.7467 82.3947 39.44 81.9947 39.84C81.6214 40.2133 81.1147 40.4 80.4747 40.4ZM71.6347 35.92C72.5147 35.92 73.408 35.8 74.3147 35.56C75.2214 35.2933 75.9814 34.9067 76.5947 34.4C77.208 33.8933 77.5147 33.2667 77.5147 32.52C77.5147 31.88 77.248 31.36 76.7147 30.96C76.208 30.5333 75.528 30.2133 74.6747 30C73.848 29.7867 72.9547 29.68 71.9947 29.68C70.368 29.68 69.128 29.96 68.2747 30.52C67.448 31.08 67.0347 31.8267 67.0347 32.76C67.0347 33.7733 67.4214 34.56 68.1947 35.12C68.9947 35.6533 70.1414 35.92 71.6347 35.92ZM90.1138 15.12C90.9671 15.12 91.5404 15.4667 91.8338 16.16C92.1538 16.8533 92.3138 17.88 92.3138 19.24C92.3138 19.56 92.2871 19.9067 92.2338 20.28C92.2071 20.6267 92.1538 20.9467 92.0738 21.24L91.9938 20.44C92.6338 18.7067 93.6204 17.36 94.9538 16.4C96.2871 15.4133 97.7004 14.92 99.1938 14.92C100.847 14.92 102.22 15.3867 103.314 16.32C104.434 17.2533 105.26 18.56 105.794 20.24C106.354 21.92 106.634 23.9067 106.634 26.2C106.634 27.6133 106.567 29.0133 106.434 30.4C106.327 31.76 106.167 33.0133 105.954 34.16C105.767 35.28 105.554 36.2 105.314 36.92C104.994 37.8267 104.58 38.5067 104.074 38.96C103.567 39.3867 102.967 39.6 102.274 39.6C101.58 39.6 101.047 39.3467 100.674 38.84C100.3 38.3333 100.114 37.6533 100.114 36.8C100.114 35.8933 100.18 34.8 100.314 33.52C100.447 32.2133 100.567 30.8933 100.674 29.56C100.807 28.2 100.874 26.9733 100.874 25.88C100.874 22.1467 99.6471 20.28 97.1938 20.28C95.8871 20.28 94.7938 20.8667 93.9138 22.04C93.0338 23.1867 92.4471 24.8267 92.1538 26.96C92.0738 27.68 92.0338 28.5733 92.0338 29.64C92.0338 30.7067 92.0338 31.7733 92.0338 32.84C92.0604 33.88 92.0338 34.76 91.9538 35.48C91.8471 37.08 91.5404 38.2267 91.0338 38.92C90.5538 39.6133 89.8871 39.96 89.0338 39.96C88.0471 39.96 87.3004 39.5067 86.7938 38.6C86.2871 37.6667 86.0338 36.1067 86.0338 33.92C86.0338 32.8 86.0604 31.5467 86.1138 30.16C86.1671 28.7733 86.2338 27.3867 86.3138 26C86.4204 24.5867 86.5404 23.3067 86.6738 22.16C86.9404 20 87.3271 18.2933 87.8338 17.04C88.3404 15.76 89.1004 15.12 90.1138 15.12Z" fill="black"/>
</svg>
